/* XPM */
static const char *brush_gradient_p5[] = {
/* columns rows colors chars-per-pixel */
"16 16 3 1",
"  c #000000",
". c #FF0000",
"X c None",
/* pixels */
"XXXXXXXXXXXXXXXX",
"XXXXXXXXXXX    X",
"XXXXXXXXXXX XXXX",
"XXXXXXXXXXX    X",
"XXXXX   XXXXXX X",
"XXXX ... XX    X",
"XXX ..... XXXXXX",
"XX ....... XXXXX",
"X ......... XXXX",
" ...........    ",
"................",
"................",
"................",
"................",
"................",
"................"
};
