/* XPM */
static const char *brush_object_c5_blocking[] = {
"20 20 4 1",
" 	c None",
".	c #FF33CC",
"+	c #C0C0C0",
"@	c #008000",
"....................",
"....................",
"..                ..",
"..  ++++++++++++  ..",
"..  +          +  ..",
"..  +          +  ..",
"..  +          +  ..",
"..  +          +  ..",
"..  +          +  ..",
"..  +          +  ..",
"..  +          +  ..",
"..  +          +  ..",
"..  +          +  ..",
"..  +          +  ..",
"..  +          +  ..",
"..  +          +  ..",
"..  +          +  ..",
"..@@@@@@@@@@@@@@@@..",
"....................",
"...................."};
