/* XPM */
static const char *brush_height_p4[] = {
/* columns rows colors chars-per-pixel */
"16 16 3 1",
"  c #000000",
". c #0000FF",
"X c None",
/* pixels */
"XXXXXXXXXXXXXXXX",
"XXXXXXXXXXX XX X",
"XXXXXXXXXXX XX X",
"XXXXXXXXXXX    X",
"XXXXXXXXXXXXXX X",
"XXX       XXXX X",
"XXX.......XXXXXX",
"XXX.......XXXXXX",
"XXX.......XXXXXX",
"   .......      ",
"................",
"................",
"................",
"................",
"................",
"................"
};
