/* XPM */
static const char *brush_object_c3_statue[] = {
"20 20 6 1",
" 	c None",
".	c #B2194C",
"+	c #C0C0C0",
"@	c #808080",
"#	c #808000",
"$	c #008000",
"....................",
"....................",
"..                ..",
"..     +          ..",
"..      +@@       ..",
"..       +@       ..",
"..     ###+@      ..",
"..     #+#@+@     ..",
"..     ###@       ..",
"..      @@@       ..",
"..      @@@       ..",
"..      @ @       ..",
"..      @  @      ..",
"..      @  @      ..",
"..     ++++++     ..",
"..      @@@@      ..",
"..      @@@@      ..",
"..$$$$$$$$$$$$$$$$..",
"....................",
"...................."};
