/* XPM */
static const char *brush_players_pink[] = {
/* columns rows colors chars-per-pixel */
"16 16 4 1",
"  c #000000",
". c #800080",
"X c #FF00FF",
"o c None",
/* pixels */
"oo            oo",
"oo ..X....X.. oo",
"oo X...XX...X oo",
"oo XX.XXXX.XX oo",
"oo X...XX...X oo",
"oo ..X....X.. oo",
"oo X...XX...X oo",
"oo XX.XXXX.XX oo",
"oo X...XX...X oo",
"oo ..X....X.. oo",
"oo X...XX...X oo",
"oo XX.XXXX.XX oo",
"ooo ...XX... ooo",
"ooo .X....X. ooo",
"oooo  .XX.  oooo",
"oooooo    oooooo"
};
