/* XPM */
static const char *brush_object_c2_hanged[] = {
"20 20 8 1",
" 	c None",
".	c #00FFFF",
"+	c #800000",
"@	c #C0C0C0",
"#	c #808080",
"$	c #FFFF00",
"%	c #0000FF",
"&	c #008000",
"....................",
"....................",
"..       +        ..",
"..   +++++++++    ..",
"..   @ + + + @    ..",
"..  ##  +++  @    ..",
"..  @@@  +  ###   ..",
".. @#@#@ + # @ #  ..",
".. @@#@@ + #+@ #  ..",
".. $@@@$ + #+@+#  ..",
"..  %$%  + #+@+#  ..",
"..  %$%  + # @+#  ..",
"..  @@@  + ###+#+ ..",
"..  @ @  +    + + ..",
"..       +        ..",
"..       +        ..",
"..      &+#       ..",
"..&&&&&&&&&&&&&&&&..",
"....................",
"...................."};
