/* XPM */
static const char *brush_object_c4_bigrock[] = {
"20 20 5 1",
" 	c None",
".	c #7fff19",
"+	c #808080",
"@	c #C0C0C0",
"#	c #008000",
"....................",
"....................",
"..                ..",
"..                ..",
"..                ..",
"..     +@         ..",
"..    @+++   +@   ..",
"..    +++@###++   ..",
"..    +@+@###++   ..",
"..   @++++@###+   ..",
"..   ++@+@+###+@  ..",
"..   ++##+++##++  ..",
"..   +@##++++@++  ..",
"..  @++##+@++@+@  ..",
"..  ++++#++###++  ..",
"..  +@++++++####  ..",
"..  +++++###++++  ..",
"..################..",
"....................",
"...................."};
