/* XPM */
static const char *brush_object_dead_tree[] = {
"20 20 3 1",
" 	c None",
".	c #FFFFFF",
"+	c #800000",
"....................",
"....................",
"..                ..",
"..  +  +          ..",
"..   + +   + +    ..",
"..    +     ++    ..",
"..  ++++  +  + +  ..",
"..     +++   ++   ..",
"..   +  ++  +++   ..",
"..   +  ++++   +  ..",
"..  +++  +++      ..",
"..     +++++  ++  ..",
"..      ++++++    ..",
"..      ++++      ..",
"..      ++++      ..",
"..      ++++      ..",
"..     ++++++     ..",
"..    +++++++++   ..",
"....................",
"...................."};
