/* XPM */
static const char *brush_height_p1[] = {
/* columns rows colors chars-per-pixel */
"16 16 3 1",
"  c #000000",
". c #0000FF",
"X c None",
/* pixels */
"XXXXXXXXXXXXXXXX",
"XXXXXXXXXXXXX XX",
"XXXXXXXXXXXXX XX",
"XXXXXXXXXXXXX XX",
"XXXXXXXXXXXXX XX",
"XXXXXXXXXXXXX XX",
"XXXXXXXXXXXXXXXX",
"XXXXXXXXXXXXXXXX",
"XXX       XXXXXX",
"   .......      ",
"................",
"................",
"................",
"................",
"................",
"................"
};
