/* XPM */
static const char *brush_height_n4[] = {
/* columns rows colors chars-per-pixel */
"16 16 3 1",
"  c #000000",
". c #0000FF",
"X c None",
/* pixels */
"XXXXXXXXXXXXXXXX",
"XXXXXXXXXXX XX X",
"XXXXXXXXXXX XX X",
"XXXXXXX   X    X",
"XXXXXXXXXXXXXX X",
"XXXXXXXXXXXXXX X",
"XXXXXXXXXXXXXXXX",
"XXXXXXXXXXXXXXXX",
"XXXXXXXXXXXXXXXX",
"   XXXXXXX      ",
"...XXXXXXX......",
"...XXXXXXX......",
"...XXXXXXX......",
"...       ......",
"................",
"................"
};
