/* XPM */
static const char * brush_object_tree[] = {
"20 20 5 1",
" 	c None",
".	c #FF0000",
"+	c #008000",
"@	c #00FF00",
"#	c #800000",
"....................",
"....................",
"..       ++       ..",
"..     ++++++     ..",
"..    ++++@+++    ..",
"..    ++++++++    ..",
"..   +@++@@++@+   ..",
"..   ++++++@+++   ..",
"..    +++@++++    ..",
"..    ++++++++    ..",
"..     ++++++     ..",
"..      #++#      ..",
"..      ####      ..",
"..      ####      ..",
"..      ####      ..",
"..      ####      ..",
"..     ######     ..",
"..    #########   ..",
"....................",
"...................."};
