/* XPM */
static const char *brush_gradient_p2[] = {
/* columns rows colors chars-per-pixel */
"16 16 3 1",
"  c #000000",
". c #FF0000",
"X c None",
/* pixels */
"XXXXXXXXXXXXXXXX",
"XXXXXXXXXXX    X",
"XXXXXXXXXXXXXX X",
"XXXXXXXXXXX    X",
"XXXXXXXXXXX XXXX",
"XXXXXXXXXXX    X",
"XXXXXXXXXXXXXXXX",
"XXX       XXXXXX",
"XX ....... XXXXX",
"  .........     ",
"................",
"................",
"................",
"................",
"................",
"................"
};
