/* XPM */
static const char *brush_object_c1_bigtree[] = {
"20 20 5 1",
" 	c None",
".	c #FFCC7F",
"+	c #808000",
"@	c #008000",
"#	c #800000",
"....................",
"....................",
"..      ++@+      ..",
"..    @+++++@+    ..",
"..   +++@+@+++@   ..",
"..   +@++@++@++   ..",
"..  ++++++++++@+  ..",
"..  +@@+@++@@@+@  ..",
"..   ++++@+++++   ..",
"..   ++@+++@@+@   ..",
"..    ++++@+++    ..",
"..      @+++      ..",
"..      ####      ..",
"..      ####      ..",
"..      ####      ..",
"..      ####      ..",
"..     ######     ..",
"..    #########   ..",
"....................",
"...................."};
