/* XPM */
static const char *brush_gradient_n4[] = {
/* columns rows colors chars-per-pixel */
"16 16 3 1",
"  c #000000",
". c #FF0000",
"X c None",
/* pixels */
"XXXXXXXXXXXXXXXX",
"XXXXXXXXXXX XX X",
"XXXXXXXXXXX XX X",
"XXXXXXX   X    X",
"XXXXXXXXXXXXXX X",
"XXXXXXXXXXXXXX X",
"XXXXXXXXXXXXXXXX",
"XXXXXXXXXXXXXXXX",
"XXXXXXXXXXXXXXXX",
" XXXXXXXXXXX    ",
". XXXXXXXXX ....",
".. XXXXXXX .....",
"... XXXXX ......",
"....     .......",
"................",
"................"
};
