/* XPM */
static const char *brush_players_player[] = {
/* columns rows colors chars-per-pixel */
"16 16 3 1",
"  c #FFFF00",
". c #008080",
"X c None",
/* pixels */
"XXXXX......XXXXX",
"XXX..........XXX",
"XX............XX",
"X..............X",
"X....      ....X",
"......  ..  ....",
"......  ..  ....",
"......  ..  ....",
"......     .....",
"......  ........",
"......  ........",
"X.....  .......X",
"X....    ......X",
"XX............XX",
"XXX..........XXX",
"XXXXX......XXXXX"
};
