/* XPM */
static const char *brush_object_bush[] = {
"20 20 4 1",
" 	c None",
".	c #0000FF",
"+	c #008000",
"@	c #00FF00",
"....................",
"....................",
"..                ..",
"..                ..",
"..                ..",
"..                ..",
"..                ..",
"..                ..",
"..                ..",
"..      +@+ +     ..",
"..     +@+@+@@    ..",
"..     @+@+@+@    ..",
"..    +@ + + ++   ..",
"..    @+@+@++ +   ..",
"..    +@+ +@@+    ..",
"..     + +@++@    ..",
".. ++++++++++++++ ..",
"..                ..",
"....................",
"...................."};
