/* XPM */
static const char *brush_object_water_object[] = {
"20 20 5 1",
" 	c None",
".	c #7F7F7F",
"+	c #008000",
"@	c #00FFFF",
"#	c #0000FF",
"....................",
"....................",
"..                ..",
"..                ..",
"..                ..",
"..                ..",
"..                ..",
"..                ..",
"..       +        ..",
"..       +   +    ..",
"..     + + + +    ..",
"..     + ++ +     ..",
"..     +  + +     ..",
"..      + ++      ..",
"..@@@@@@@++@@@@@@@..",
"..@#@@@#@@@#@@@#@@..",
"..#@#@#@#@#@#@#@#@..",
"..################..",
"....................",
"...................."};
