/* XPM */
static const char *brush_height_n2[] = {
/* columns rows colors chars-per-pixel */
"16 16 3 1",
"  c #000000",
". c #0000FF",
"X c None",
/* pixels */
"XXXXXXXXXXXXXXXX",
"XXXXXXXXXXX    X",
"XXXXXXXXXXXXXX X",
"XXXXXXX   X    X",
"XXXXXXXXXXX XXXX",
"XXXXXXXXXXX    X",
"XXXXXXXXXXXXXXXX",
"XXXXXXXXXXXXXXXX",
"XXXXXXXXXXXXXXXX",
"   XXXXXXX      ",
"...XXXXXXX......",
"...       ......",
"................",
"................",
"................",
"................"
};
