/* XPM */
static const char *edit_redo[] = {
/* columns rows colors chars-per-pixel */
"16 16 2 1",
"  c #000000",
". c None",
/* pixels */
"................",
"........   .....",
".........   ....",
"..........   ...",
"...........   ..",
"....           .",
"...            .",
"..   ......   ..",
".   ......   ...",
".  ......   ....",
".  .....   .....",
".  .............",
".  .............",
".. .............",
"................",
"................"
};
