/* XPM */
static const char *edit_randomize[] = {
/* columns rows colors chars-per-pixel */
"16 16 3 1",
"  c #008000",
". c #00FF00",
"X c #00FFFF",
/* pixels */
"                ",
" XX    XX       ",
"  XX  XX     .  ",
"   XXXX         ",
"    XX          ",
"   XXXX        .",
"  XX  XX       .",
" XX    XX     ..",
"              . ",
"               .",
"           .    ",
"          ... . ",
"           .    ",
"               .",
"    .   ....    ",
"       ......   "
};
