/* XPM */
static const char *radius_9[] = {
/* columns rows colors chars-per-pixel */
"16 16 3 1",
"  c #000000",
". c #808080",
"X c None",
/* pixels */
"XXXXXXXXXXXXXXXX",
"XXXXXXX..XXXXXXX",
"XXXXX.    .XXXXX",
"XXXX        XXXX",
"XXX          XXX",
"XX.          .XX",
"XX            XX",
"X.            .X",
"X.            .X",
"XX            XX",
"XX.          .XX",
"XXX          XXX",
"XXXX        XXXX",
"XXXXX.    .XXXXX",
"XXXXXXX..XXXXXXX",
"XXXXXXXXXXXXXXXX"
};
