/* XPM */
static char * megaglest_xpm[] = {
"32 32 972 2",
"  	c None",
". 	c #B7AE90",
"+ 	c #C3BA8D",
"@ 	c #A79C7C",
"# 	c #A89A7B",
"$ 	c #ADA185",
"% 	c #B3A88E",
"& 	c #A79879",
"* 	c #A59574",
"= 	c #A69879",
"- 	c #ADA287",
"; 	c #A1916F",
"> 	c #AB9E80",
", 	c #B2A78D",
"' 	c #A09375",
") 	c #AFA286",
"! 	c #A49473",
"~ 	c #B1A589",
"{ 	c #B2A78B",
"] 	c #B2A88D",
"^ 	c #AEA387",
"/ 	c #A29477",
"( 	c #AC9D80",
"_ 	c #B5AB90",
": 	c #AEA183",
"< 	c #AB9D81",
"[ 	c #A69777",
"} 	c #A8997B",
"| 	c #ADA082",
"1 	c #A6997A",
"2 	c #70603B",
"3 	c #A69B7E",
"4 	c #544322",
"5 	c #6F5E28",
"6 	c #887624",
"7 	c #584114",
"8 	c #776236",
"9 	c #695A38",
"0 	c #685530",
"a 	c #88721A",
"b 	c #C2AA3C",
"c 	c #7A6428",
"d 	c #644D16",
"e 	c #59461C",
"f 	c #635229",
"g 	c #735D2D",
"h 	c #6D5622",
"i 	c #6B5521",
"j 	c #655123",
"k 	c #4D3C1D",
"l 	c #7D693D",
"m 	c #806B3D",
"n 	c #5C4106",
"o 	c #644B13",
"p 	c #6F5E37",
"q 	c #625438",
"r 	c #705928",
"s 	c #806D43",
"t 	c #7F6B3E",
"u 	c #5C4513",
"v 	c #5F5133",
"w 	c #362B13",
"x 	c #9D9276",
"y 	c #A07E0D",
"z 	c #635A2B",
"A 	c #EAE631",
"B 	c #735E1B",
"C 	c #73613D",
"D 	c #62521B",
"E 	c #6C5C29",
"F 	c #EBB73C",
"G 	c #FF933B",
"H 	c #A78D48",
"I 	c #7F693F",
"J 	c #5E480D",
"K 	c #6A5B28",
"L 	c #6A5018",
"M 	c #705823",
"N 	c #684F19",
"O 	c #605133",
"P 	c #9D7F12",
"Q 	c #7A6842",
"R 	c #816C3F",
"S 	c #7D6738",
"T 	c #664C15",
"U 	c #51421F",
"V 	c #9B7B0D",
"W 	c #776641",
"X 	c #8C784C",
"Y 	c #745C28",
"Z 	c #776030",
"` 	c #615233",
" .	c #A08216",
"..	c #39301F",
"+.	c #A29374",
"@.	c #5E471A",
"#.	c #866C1D",
"$.	c #FEF12F",
"%.	c #C3C22B",
"&.	c #372E16",
"*.	c #2B2210",
"=.	c #817723",
"-.	c #FFAD3C",
";.	c #FF963C",
">.	c #8A7228",
",.	c #372B0F",
"'.	c #342910",
").	c #362C14",
"!.	c #41351B",
"~.	c #423721",
"{.	c #3C321A",
"].	c #3B2F15",
"^.	c #31260F",
"/.	c #392D12",
"(.	c #3E3216",
"_.	c #42351D",
":.	c #473A1D",
"<.	c #42361E",
"[.	c #2B2008",
"}.	c #463B25",
"|.	c #3D3116",
"1.	c #3E331B",
"2.	c #423416",
"3.	c #5E4716",
"4.	c #69562F",
"5.	c #322811",
"6.	c #B0A286",
"7.	c #6F592A",
"8.	c #816E0E",
"9.	c #F7E82E",
"0.	c #F4E42F",
"a.	c #6A5F23",
"b.	c #413715",
"c.	c #D8B434",
"d.	c #FFA63B",
"e.	c #FF973D",
"f.	c #A6782A",
"g.	c #4A3D22",
"h.	c #43381C",
"i.	c #44391D",
"j.	c #3F3012",
"k.	c #4B3D22",
"l.	c #493D21",
"m.	c #45391D",
"n.	c #3F2F10",
"o.	c #403113",
"p.	c #3D3010",
"q.	c #423B1C",
"r.	c #442E18",
"s.	c #5A3229",
"t.	c #513E26",
"u.	c #473D1C",
"v.	c #3A310C",
"w.	c #3B3418",
"x.	c #897235",
"y.	c #7C6739",
"z.	c #433923",
"A.	c #A39679",
"B.	c #7C663E",
"C.	c #C1B52F",
"D.	c #B49F21",
"E.	c #CBBC2A",
"F.	c #C3C026",
"G.	c #685422",
"H.	c #F3B837",
"I.	c #F09436",
"J.	c #FF973C",
"K.	c #C27C32",
"L.	c #584A29",
"M.	c #4E4223",
"N.	c #7C4425",
"O.	c #9E4825",
"P.	c #9F3324",
"Q.	c #873A29",
"R.	c #5D4425",
"S.	c #504724",
"T.	c #604527",
"U.	c #A82E43",
"V.	c #C03B5A",
"W.	c #B7164A",
"X.	c #CA0275",
"Y.	c #882B46",
"Z.	c #3F3A18",
"`.	c #9B2A71",
" +	c #C217AE",
".+	c #A019A6",
"++	c #724931",
"@+	c #543F0D",
"#+	c #342912",
"$+	c #A59677",
"%+	c #6C5837",
"&+	c #E5E12F",
"*+	c #F5EA2E",
"=+	c #87791B",
"-+	c #ECD12E",
";+	c #E5B932",
">+	c #A37F22",
",+	c #E28E36",
"'+	c #EF8F37",
")+	c #CF7C31",
"!+	c #42381E",
"~+	c #6F4E25",
"{+	c #CF552B",
"]+	c #FF3C2C",
"^+	c #FF2928",
"/+	c #E71D21",
"(+	c #642D17",
"_+	c #4C3117",
":+	c #E11F40",
"<+	c #F30039",
"[+	c #D30347",
"}+	c #E10065",
"|+	c #D30075",
"1+	c #891D45",
"2+	c #A80F7A",
"3+	c #B4068B",
"4+	c #A707A3",
"5+	c #9800C1",
"6+	c #9502CB",
"7+	c #583A33",
"8+	c #2C2209",
"9+	c #9D9378",
"0+	c #92770C",
"a+	c #F0E132",
"b+	c #B0AA29",
"c+	c #E4DF2E",
"d+	c #D1B62C",
"e+	c #E9CB30",
"f+	c #574921",
"g+	c #EC9B3A",
"h+	c #D3792E",
"i+	c #DA8433",
"j+	c #46381C",
"k+	c #7C4B22",
"l+	c #FE5E33",
"m+	c #EA3F27",
"n+	c #F02826",
"o+	c #FF1E27",
"p+	c #863426",
"q+	c #7E3427",
"r+	c #FD043D",
"s+	c #BC0E30",
"t+	c #B81138",
"u+	c #AC1151",
"v+	c #CF0274",
"w+	c #672D32",
"x+	c #622E35",
"y+	c #54202D",
"z+	c #941188",
"A+	c #9E00C0",
"B+	c #9100C7",
"C+	c #8E1795",
"D+	c #302614",
"E+	c #A59A80",
"F+	c #908728",
"G+	c #EADF29",
"H+	c #372D16",
"I+	c #A59F27",
"J+	c #F4E62D",
"K+	c #837D1A",
"L+	c #483A1A",
"M+	c #E6993A",
"N+	c #E08033",
"O+	c #E68E3A",
"P+	c #59411C",
"Q+	c #C2682C",
"R+	c #FF5834",
"S+	c #CB3F24",
"T+	c #743322",
"U+	c #633A25",
"V+	c #473B20",
"W+	c #863026",
"X+	c #F9052E",
"Y+	c #71211F",
"Z+	c #9D2031",
"`+	c #A71B4F",
" @	c #DD007E",
".@	c #7C283C",
"+@	c #852251",
"@@	c #BC029F",
"#@	c #831C61",
"$@	c #500F57",
"%@	c #7804AD",
"&@	c #7D0AC0",
"*@	c #382526",
"=@	c #AA9D80",
"-@	c #DCDA32",
";@	c #B5AA24",
">@	c #36280C",
",@	c #4A3D1E",
"'@	c #79701B",
")@	c #372C17",
"!@	c #514822",
"~@	c #F0993C",
"{@	c #FB973A",
"]@	c #ED8839",
"^@	c #52421C",
"/@	c #915A2E",
"(@	c #FF5732",
"_@	c #D94222",
":@	c #49381D",
"<@	c #4A3B21",
"[@	c #853729",
"}@	c #5A2511",
"|@	c #EE0335",
"1@	c #A21626",
"2@	c #8E2033",
"3@	c #EB0060",
"4@	c #D70085",
"5@	c #5A3122",
"6@	c #B50B7B",
"7@	c #C100A8",
"8@	c #58282A",
"9@	c #451442",
"0@	c #7F347D",
"a@	c #7B08C9",
"b@	c #351E27",
"c@	c #BBAD86",
"d@	c #DFCF32",
"e@	c #846F3F",
"f@	c #3A2D12",
"g@	c #514625",
"h@	c #ECEDAA",
"i@	c #ABB9A5",
"j@	c #4D4317",
"k@	c #EDA53F",
"l@	c #EE9A3B",
"m@	c #D58132",
"n@	c #513F16",
"o@	c #5A4524",
"p@	c #9F4925",
"q@	c #FC3A2D",
"r@	c #EF2A29",
"s@	c #E8282B",
"t@	c #DE2334",
"u@	c #302C13",
"v@	c #723226",
"w@	c #CB1A45",
"x@	c #C70D41",
"y@	c #D10366",
"z@	c #D10383",
"A@	c #42340E",
"B@	c #801E51",
"C@	c #C307A1",
"D@	c #96147C",
"E@	c #6E0F82",
"F@	c #8E1799",
"G@	c #933F9B",
"H@	c #3D3120",
"I@	c #B0A180",
"J@	c #836C35",
"K@	c #867249",
"L@	c #433619",
"M@	c #423413",
"N@	c #C6AB4C",
"O@	c #E7BD0F",
"P@	c #524411",
"Q@	c #5A4F26",
"R@	c #64542B",
"S@	c #4F4020",
"T@	c #47391F",
"U@	c #46381D",
"V@	c #422D0D",
"W@	c #7B3E26",
"X@	c #8B3224",
"Y@	c #773622",
"Z@	c #523920",
"`@	c #943030",
" #	c #623D2A",
".#	c #492C13",
"+#	c #D50166",
"@#	c #B91563",
"##	c #3A310B",
"$#	c #493E22",
"%#	c #583531",
"&#	c #5B2F37",
"*#	c #4E2D34",
"=#	c #6F512C",
"-#	c #8A794D",
";#	c #A1977B",
">#	c #614D14",
",#	c #65542B",
"'#	c #463C27",
")#	c #52462B",
"!#	c #352710",
"~#	c #5D4517",
"{#	c #EBC013",
"]#	c #5A5029",
"^#	c #3B2D12",
"/#	c #3A2C0E",
"(#	c #453616",
"_#	c #3B2B0E",
":#	c #40300F",
"<#	c #46391D",
"[#	c #493D1F",
"}#	c #403210",
"|#	c #413615",
"1#	c #932A28",
"2#	c #EC1F42",
"3#	c #782825",
"4#	c #BE1245",
"5#	c #E5006F",
"6#	c #652E31",
"7#	c #615021",
"8#	c #443518",
"9#	c #4E3F21",
"0#	c #443921",
"a#	c #392D14",
"b#	c #513B0C",
"c#	c #6C5923",
"d#	c #2F2511",
"e#	c #9F9175",
"f#	c #5A4612",
"g#	c #5D4B22",
"h#	c #514429",
"i#	c #47391B",
"j#	c #433310",
"k#	c #AE7505",
"l#	c #F6D70E",
"m#	c #5A4111",
"n#	c #2E1D04",
"o#	c #403218",
"p#	c #3D2D10",
"q#	c #3A2B0D",
"r#	c #4E4020",
"s#	c #463A1E",
"t#	c #4A3A1B",
"u#	c #433413",
"v#	c #4C3C21",
"w#	c #A0313C",
"x#	c #C22649",
"y#	c #BF2654",
"z#	c #861D4C",
"A#	c #C3B30C",
"B#	c #745A15",
"C#	c #40341C",
"D#	c #4D4026",
"E#	c #4B3D21",
"F#	c #3D321C",
"G#	c #625126",
"H#	c #6F5D2C",
"I#	c #3D3320",
"J#	c #A79C7E",
"K#	c #7A6437",
"L#	c #755F2E",
"M#	c #35280C",
"N#	c #45381A",
"O#	c #4D3F1E",
"P#	c #423415",
"Q#	c #3F331D",
"R#	c #574625",
"S#	c #ECEA99",
"T#	c #F3F698",
"U#	c #625424",
"V#	c #493C22",
"W#	c #3E3015",
"X#	c #604D1B",
"Y#	c #654C0C",
"Z#	c #664C1A",
"`#	c #5D420E",
" $	c #53441B",
".$	c #32280B",
"+$	c #4C481B",
"@$	c #635C1D",
"#$	c #FFE900",
"$$	c #B7930B",
"%$	c #2C2414",
"&$	c #4A3B20",
"*$	c #483B20",
"=$	c #4B3F22",
"-$	c #413621",
";$	c #846E3F",
">$	c #7A6438",
",$	c #3E3118",
"'$	c #A59777",
")$	c #796433",
"!$	c #816C3E",
"~$	c #3E3116",
"{$	c #4B3C1B",
"]$	c #413212",
"^$	c #47391E",
"/$	c #4A3B14",
"($	c #E9EB95",
"_$	c #6E7370",
":$	c #595245",
"<$	c #50400D",
"[$	c #E6D601",
"}$	c #C88A00",
"|$	c #95741C",
"1$	c #927022",
"2$	c #A4862D",
"3$	c #C0920F",
"4$	c #B57200",
"5$	c #C69E12",
"6$	c #363C3B",
"7$	c #E6C900",
"8$	c #443615",
"9$	c #48391E",
"0$	c #4A3C21",
"a$	c #483A1D",
"b$	c #3B3017",
"c$	c #7E6838",
"d$	c #5F4307",
"e$	c #3C3017",
"f$	c #9E9071",
"g$	c #7B6433",
"h$	c #77602F",
"i$	c #3F351F",
"j$	c #3F3318",
"k$	c #524325",
"l$	c #413213",
"m$	c #3D2E11",
"n$	c #3C2D0F",
"o$	c #42341A",
"p$	c #464C4A",
"q$	c #DBD556",
"r$	c #D1C311",
"s$	c #7A8899",
"t$	c #BEDCFA",
"u$	c #E3FAF1",
"v$	c #EFFDF0",
"w$	c #DEFAFF",
"x$	c #CDEDFF",
"y$	c #C6DEE9",
"z$	c #9FC3E5",
"A$	c #E4C725",
"B$	c #705B0E",
"C$	c #493D22",
"D$	c #4A3D21",
"E$	c #3F3112",
"F$	c #483A1E",
"G$	c #46391C",
"H$	c #403620",
"I$	c #7E693A",
"J$	c #3D3115",
"K$	c #A69A7C",
"L$	c #6B5524",
"M$	c #7B6636",
"N$	c #443922",
"O$	c #403317",
"P$	c #4B3F23",
"Q$	c #392C11",
"R$	c #4E3E20",
"S$	c #382911",
"T$	c #D0BC0E",
"U$	c #80835D",
"V$	c #CADEEA",
"W$	c #ADE1FF",
"X$	c #CCA428",
"Y$	c #F8D516",
"Z$	c #F3CC13",
"`$	c #E9B22B",
" %	c #7C837E",
".%	c #EFF9FF",
"+%	c #666C59",
"@%	c #866B10",
"#%	c #493D27",
"$%	c #483A1F",
"%%	c #46391F",
"&%	c #44381D",
"*%	c #44361A",
"=%	c #423823",
"-%	c #786131",
";%	c #786231",
">%	c #382C0F",
",%	c #A49A7F",
"'%	c #72602E",
")%	c #5A471D",
"!%	c #3F300F",
"~%	c #3F351E",
"{%	c #554310",
"]%	c #C9BA19",
"^%	c #D7E1ED",
"/%	c #E3EFFB",
"(%	c #7C712C",
"_%	c #BAAF0B",
":%	c #020009",
"<%	c #0C090E",
"[%	c #08060B",
"}%	c #6F5313",
"|%	c #B3D3E0",
"1%	c #C38400",
"2%	c #533F10",
"3%	c #48391F",
"4%	c #4A3B1C",
"5%	c #4D4121",
"6%	c #3B2B0D",
"7%	c #453615",
"8%	c #43381F",
"9%	c #3F341C",
"0%	c #766433",
"a%	c #392F1C",
"b%	c #95886C",
"c%	c #6C571E",
"d%	c #73623F",
"e%	c #3E3011",
"f%	c #3A2C0D",
"g%	c #3B2D0F",
"h%	c #45371B",
"i%	c #44371F",
"j%	c #D3AD00",
"k%	c #7A8A9F",
"l%	c #FFFFFF",
"m%	c #A7C2CA",
"n%	c #C5A500",
"o%	c #1E2646",
"p%	c #59523B",
"q%	c #241C0C",
"r%	c #251E14",
"s%	c #5C410E",
"t%	c #6E9ACD",
"u%	c #D1A900",
"v%	c #43361E",
"w%	c #483A20",
"x%	c #47391D",
"y%	c #493A1D",
"z%	c #4B3F25",
"A%	c #5C471A",
"B%	c #66531B",
"C%	c #362C19",
"D%	c #6F5A2B",
"E%	c #7F6939",
"F%	c #44371A",
"G%	c #4C4124",
"H%	c #3C2C0E",
"I%	c #423519",
"J%	c #453619",
"K%	c #42351B",
"L%	c #C3DAEE",
"M%	c #B8C3A6",
"N%	c #5C4200",
"O%	c #404951",
"P%	c #9CA790",
"Q%	c #A9891B",
"R%	c #D2AD03",
"S%	c #E1AB07",
"T%	c #5B4F3C",
"U%	c #DFC400",
"V%	c #3D2E15",
"W%	c #413110",
"X%	c #3A2A0D",
"Y%	c #3F2F0C",
"Z%	c #44361B",
"`%	c #4E4021",
" &	c #41341B",
".&	c #352B15",
"+&	c #6E5520",
"@&	c #7F6A3F",
"#&	c #3B3015",
"$&	c #AEA083",
"%&	c #857144",
"&&	c #504429",
"*&	c #3F3113",
"=&	c #46381B",
"-&	c #44381C",
";&	c #4B3F26",
">&	c #AC6C00",
",&	c #BCDCFB",
"'&	c #999788",
")&	c #65450F",
"!&	c #E3CD00",
"~&	c #A28510",
"{&	c #899991",
"]&	c #A3B9CA",
"^&	c #EEF0DE",
"/&	c #BCCDC9",
"(&	c #797D60",
"_&	c #9D7B01",
":&	c #443722",
"<&	c #4F4023",
"[&	c #4E4321",
"}&	c #473B21",
"|&	c #4E4022",
"1&	c #3B321B",
"2&	c #352A13",
"3&	c #6C5521",
"4&	c #867143",
"5&	c #433A28",
"6&	c #A39371",
"7&	c #5C4512",
"8&	c #836E41",
"9&	c #362A0E",
"0&	c #4B3D20",
"a&	c #4B3C1D",
"b&	c #402F0D",
"c&	c #44371E",
"d&	c #B37300",
"e&	c #7E94B3",
"f&	c #FEFFFF",
"g&	c #B2C8CE",
"h&	c #DED322",
"i&	c #8A95A6",
"j&	c #D4F3DE",
"k&	c #FFF993",
"l&	c #F1E72F",
"m&	c #84909A",
"n&	c #EDF3F5",
"o&	c #E4F2FF",
"p&	c #C9B53C",
"q&	c #4E3711",
"r&	c #3B2C10",
"s&	c #4F4022",
"t&	c #433517",
"u&	c #47381E",
"v&	c #40341B",
"w&	c #372E19",
"x&	c #6F5A28",
"y&	c #5F4306",
"z&	c #3A2E15",
"A&	c #A2967A",
"B&	c #5A4B2B",
"C&	c #65542D",
"D&	c #34280E",
"E&	c #544A23",
"F&	c #443515",
"G&	c #46371A",
"H&	c #4D3F20",
"I&	c #5A461E",
"J&	c #937E3A",
"K&	c #AFCADB",
"L&	c #A8B6C4",
"M&	c #B0B15F",
"N&	c #E8DD2D",
"O&	c #7E6603",
"P&	c #483F04",
"Q&	c #2D2C21",
"R&	c #624201",
"S&	c #99BCCB",
"T&	c #FDFFFF",
"U&	c #ABAB97",
"V&	c #BC8102",
"W&	c #4C3F24",
"X&	c #41310F",
"Y&	c #423313",
"Z&	c #3E3115",
"`&	c #3A3019",
" *	c #715F38",
".*	c #594C2B",
"+*	c #382E18",
"@*	c #9B9178",
"#*	c #93790F",
"$*	c #524223",
"%*	c #40361F",
"&*	c #50442A",
"**	c #4A3D1F",
"=*	c #473813",
"-*	c #5E4E0E",
";*	c #F0E30A",
">*	c #6A809D",
",*	c #949EAF",
"'*	c #98BBEB",
")*	c #D0AB22",
"!*	c #574705",
"~*	c #3F370C",
"{*	c #363316",
"]*	c #F6E008",
"^*	c #7DA6CA",
"/*	c #9EA6AB",
"(*	c #ADA884",
"_*	c #BB8F03",
":*	c #463A22",
"<*	c #382E1B",
"[*	c #4C3D21",
"}*	c #3F3217",
"|*	c #3B3321",
"1*	c #574725",
"2*	c #9B7C11",
"3*	c #3B3220",
"4*	c #A79C80",
"5*	c #735F31",
"6*	c #705A29",
"7*	c #332506",
"8*	c #493D20",
"9*	c #4B3C1C",
"0*	c #31221B",
"a*	c #EEEE44",
"b*	c #E3D036",
"c*	c #655618",
"d*	c #D4C81D",
"e*	c #597BBE",
"f*	c #939FB1",
"g*	c #9BA7AD",
"h*	c #80907C",
"i*	c #CAB249",
"j*	c #936F00",
"k*	c #7496B2",
"l*	c #9BB2D0",
"m*	c #82AAD4",
"n*	c #FADC00",
"o*	c #3C2F15",
"p*	c #3F3215",
"q*	c #4A3C20",
"r*	c #483C20",
"s*	c #43371C",
"t*	c #38301F",
"u*	c #68572C",
"v*	c #533F13",
"w*	c #3A301A",
"x*	c #A39871",
"y*	c #7B6638",
"z*	c #644F1F",
"A*	c #382F1C",
"B*	c #423417",
"C*	c #4B3F21",
"D*	c #867A24",
"E*	c #ECEB47",
"F*	c #796734",
"G*	c #3A2B12",
"H*	c #3E2F11",
"I*	c #372A22",
"J*	c #D7B102",
"K*	c #859E8E",
"L*	c #89B7DA",
"M*	c #B9CDD1",
"N*	c #6596EE",
"O*	c #84BDFA",
"P*	c #C2E1D0",
"Q*	c #EBEE7C",
"R*	c #CBAC0B",
"S*	c #A1B4BD",
"T*	c #433212",
"U*	c #3A2B0E",
"V*	c #423317",
"W*	c #473A1F",
"X*	c #3D341F",
"Y*	c #776744",
"Z*	c #654B13",
"`*	c #998967",
" =	c #644E1E",
".=	c #69562D",
"+=	c #271E08",
"@=	c #4A3D24",
"#=	c #72672D",
"$=	c #43351B",
"%=	c #423619",
"&=	c #413216",
"*=	c #463619",
"==	c #625411",
"-=	c #CCAE13",
";=	c #F5E52C",
">=	c #EEE630",
",=	c #F6D01E",
"'=	c #A68F15",
")=	c #6C5D10",
"!=	c #483E28",
"~=	c #58646E",
"{=	c #7D98B0",
"]=	c #493F25",
"^=	c #49412C",
"/=	c #4C3D20",
"(=	c #403520",
"_=	c #6C5B36",
":=	c #695934",
"<=	c #3C321C",
"[=	c #A79877",
"}=	c #6A521F",
"|=	c #846F40",
"1=	c #382B0E",
"2=	c #2F240F",
"3=	c #443820",
"4=	c #41351D",
"5=	c #4A3F29",
"6=	c #43371E",
"7=	c #32260A",
"8=	c #392C10",
"9=	c #372E20",
"0=	c #221A13",
"a=	c #271D13",
"b=	c #2B251E",
"c=	c #30281A",
"d=	c #291F07",
"e=	c #3D321A",
"f=	c #3A2E16",
"g=	c #627587",
"h=	c #A3BDD2",
"i=	c #3E3624",
"j=	c #2F260F",
"k=	c #2D230C",
"l=	c #251D0D",
"m=	c #423720",
"n=	c #715C30",
"o=	c #523E12",
"p=	c #2D230B",
"q=	c #A09477",
"r=	c #44310B",
"s=	c #6D5B33",
"t=	c #674D15",
"u=	c #735E2D",
"v=	c #7F6B3B",
"w=	c #4F3603",
"x=	c #5D4A1F",
"y=	c #836E3F",
"z=	c #755E2C",
"A=	c #765F2E",
"B=	c #7E6B3F",
"C=	c #5A4416",
"D=	c #63522D",
"E=	c #6C5520",
"F=	c #857245",
"G=	c #765F2C",
"H=	c #5A461A",
"I=	c #564625",
"J=	c #675220",
"K=	c #674D16",
"L=	c #6E5723",
"M=	c #655B3E",
"N=	c #8B9BAF",
"O=	c #634D1A",
"P=	c #776238",
"Q=	c #604F29",
"R=	c #504B2E",
"S=	c #332813",
"T=	c #5B4E2F",
"U=	c #2C2510",
"V=	c #948A6E",
"W=	c #997B0F",
"X=	c #645432",
"Y=	c #7C673A",
"Z=	c #62480E",
"`=	c #877348",
" -	c #65551F",
".-	c #6C5B2A",
"+-	c #7F6B3F",
"@-	c #7B6535",
"#-	c #765F32",
"$-	c #6E5B23",
"%-	c #73612F",
"&-	c #786133",
"*-	c #705929",
"=-	c #867248",
"--	c #5A4A28",
";-	c #9B7C10",
">-	c #75643C",
",-	c #786236",
"'-	c #847044",
")-	c #7A6434",
"!-	c #5B4A26",
"~-	c #9E8521",
"{-	c #625435",
"]-	c #6D5727",
"^-	c #6D5E3C",
"/-	c #423E29",
"(-	c #453A21",
"_-	c #242313",
":-	c #6F603C",
"<-	c #322814",
"[-	c #443A24",
"}-	c #413721",
"|-	c #2F250F",
"1-	c #332B19",
"2-	c #433820",
"3-	c #3F341D",
"4-	c #433922",
"5-	c #39301C",
"6-	c #2F240D",
"7-	c #322A16",
"8-	c #31260E",
"9-	c #453A24",
"0-	c #3B311C",
"a-	c #322917",
"b-	c #3E341D",
"c-	c #3C3018",
"d-	c #382D16",
"e-	c #413720",
"f-	c #2E2105",
"g-	c #3B321F",
"h-	c #372C14",
"i-	c #362C16",
"j-	c #39311F",
"k-	c #2A1E0E",
"l-	c #292116",
"m-	c #17170D",
". + @ # $ % & * = - ; > , ' ) ! ~ { ] ^ / ( _ : < ' : [ } | 1 2 ",
"3 4 5 6 7 8 9 0 a b c d e f g h i j k l m n o p q r s n t u v w ",
"x y z A B C D E F G H I J K L M N O P Q R S T U V W X Y Z `  ...",
"+.@.#.$.%.&.*.=.-.;.>.,.'.).!.~.{.].^./.(._.:.<.[.}.|.1.2.3.4.5.",
"6.7.8.9.0.a.b.c.d.e.f.g.h.i.j.k.l.m.n.o.p.q.r.s.t.g.u.v.w.x.y.z.",
"A.B.C.D.E.F.G.H.I.J.K.L.M.N.O.P.Q.R.S.T.U.V.W.X.Y.Z.`. +.+++@+#+",
"$+%+&+*+=+-+;+>+,+'+)+!+~+{+]+^+/+(+_+:+<+[+}+|+1+2+3+4+5+6+7+8+",
"9+0+a+b+c+d+e+f+g+h+i+j+k+l+m+n+o+p+q+r+s+t+u+v+w+x+y+z+A+B+C+D+",
"E+F+G+H+I+J+K+L+M+N+O+P+Q+R+S+T+U+V+W+X+Y+Z+`+ @.@+@@@#@$@%@&@*@",
"=@-@;@>@,@'@)@!@~@{@]@^@/@(@_@:@<@[@}@|@1@2@3@4@5@6@7@8@9@0@a@b@",
"c@d@e@f@g@h@i@j@k@l@m@n@o@p@q@r@s@t@u@v@w@x@y@z@A@B@C@D@E@F@G@H@",
"I@J@K@L@M@N@O@P@Q@R@S@T@U@V@W@X@Y@Z@`@ #m..#+#@###$#%#&#*#=#-#H+",
";#>#,#'#)#!#~#{#]#^#/#(#_#:#<#[#}#|#1#2#3#4#5#6#7#8#9#0#a#b#c#d#",
"e#f#g#,.h#i#j#k#l#m#n#o#p#q#r#s#t#u#v#w#x#y#z#A#B#C#D#E#F#G#H#I#",
"J#K#L#M#N#O#P#Q#R#S#T#U#V#W#X#Y#Z#`# $.$+$@$#$$$%$&$*$=$-$;$>$,$",
"'$)$!$l.~${$]$^$/$($_$:$<$[$}$|$1$2$3$4$5$6$7$8$j+9$0$a$b$c$d$e$",
"f$g$h$i$j$k$l$m$n$o$p$q$r$s$t$u$v$w$x$y$z$A$B$C$D$E$F$G$H$c$I$J$",
"K$L$M$N$O$P$Q$R$j+S$T$U$V$W$X$Y$Z$`$ %.%+%@%#%V#$%%%&%*%=%-%;%>%",
",%'%)%!%k.:#~%i#T@{%]%^%/%(%_%:%<%[%}%|%1%2%3%4%5%6%7%8%9%g#0%a%",
"b%c%d%|.e%f%g%h%i%j%k%l%m%n%o%p%q%r%s%t%u%v%w%j+x%y%z%j$|.A%B%C%",
"| D%E%F%G%H%I%J%K%4$L%l%M%N%O%P%Q%R%S%T%U%V%W%X%Y%Z%`% &.&+&@&#&",
"$&I$%&0#&&*&=&-&;&>&,&l%'&)&!&~&{&]&^&/&(&_&:&<&[&}&|&1&2&3&4&5&",
"6&7&8&9&0&$%a&b&c&d&e&f&g&h&i&j&k&l&m&n&o&p&q&r&s&t&u&v&w&x&y&z&",
"A&B&C&D&E&F&(#G&H&I&J&K&L&M&N&O&P&Q&R&S&T&U&V&W&X&Y&4%Z&`& *.*+*",
"@*#*$*%*&*=$**7%=*-*;*>*,*'*)*!*~*{*]*^*/*(*_*:*o.<*[*}*|*1*2*3*",
"4*5*6*7*8*9*l$0*a*b*c*d*e*f*g*h*i*j*k*l*m*n*o*T@p*q*r*s*t*u*v*w*",
"x*y*z*A*B*C*D*E*F*G*H*I*J*K*L*M*N*O*P*Q*R*S*r#T*U*V*x%W*X*Y*Z*#+",
"`* =.=+=!.@=#=$=W&%=m$&=*===-=;=>=,='=)=!=~={=]=&%~$^=/=(=_=:=<=",
"[=}=|=1=2=3=4=/.5=~%6=5=7=8=9=0=a=b=c=d=e=f=g=h=i=j=k=l=m=n=o=p=",
"q=r=s=t=u=v=w=x=y=z=A=B=C=D=E=F=G=H=I=J=K=R L=M=N=O=P=Q=R=S=T=U=",
"V=W=X=Y=Z=`= -.-+-@-y=#-$-%-&-*-=---;->-,-'-)-!-~-{-h ]-^-/-(-_-",
":-<-w [-2&}-|-1-2-3-4-5-6-7-~.8-9-0-a-b-c-d-e-f-k=g-h-i-j-k-l-m-"};
