/* XPM */
static const char *brush_surface_grass1[] = {
/* columns rows colors chars-per-pixel */
"16 16 4 1",
"  c #003300",
". c #00a000",
"@ c #00E000",
"X c None",
/* pixels */
"XXXXXXXXXXXXXXXX",
"@@@@@@@@@@@@@@@.",
"@.............. ",
"@.............. ",
"@.............. ",
"@.............. ",
"@.............. ",
"@.............. ",
"@.............. ",
"@.............. ",
"@.............. ",
"@.............. ",
"@.............. ",
"@.............. ",
"                ",
"XXXXXXXXXXXXXXXX"
};
