/* XPM */
static const char *brush_gradient_n1[] = {
/* columns rows colors chars-per-pixel */
"16 16 3 1",
"  c #000000",
". c #FF0000",
"X c None",
/* pixels */
"XXXXXXXXXXXXXXXX",
"XXXXXXXXXXXXX XX",
"XXXXXXXXXXXXX XX",
"XXXXXXXXX   X XX",
"XXXXXXXXXXXXX XX",
"XXXXXXXXXXXXX XX",
"XXXXXXXXXXXXXXXX",
"XXXXXXXXXXXXXXXX",
"XXXXXXXXXXXXXXXX",
"   XXXXXXX      ",
"...       ......",
"................",
"................",
"................",
"................",
"................"
};
