/* XPM */
static const char *brush_none[] = {
/* columns rows colors chars-per-pixel */
"16 16 4 1",
"  c #FF0000",
". c #008000",
"X c #000080",
"o c None",
/* pixels */
"oo  oooXXooo  oo",
"oo   oXXXXo   oo",
"ooo   XXXX   ooo",
"oooo   XX   oooo",
"ooooo      ooooo",
"oooooo    oooooo",
"oooooo    oooooo",
"ooooo      ooooo",
"oooo   XX   oooo",
"ooo   XXXX   ooo",
"oo   oXXXXo   oo",
"oo  ooXXXXoo  oo",
"ooooo......ooooo",
"................",
"................",
"................"
};
