/* XPM */
static const char *brush_object_stone[] = {
"20 20 5 1",
" 	c None",
".	c #7F7FFF",
"+	c #808080",
"@	c #C0C0C0",
"#	c #008000",
"....................",
"....................",
"..                ..",
"..                ..",
"..                ..",
"..                ..",
"..                ..",
"..                ..",
"..                ..",
"..    +@          ..",
"..   +++@++       ..",
"..   @++++@+@     ..",
"..  +++++++++@    ..",
"..  +++@+++++@@   ..",
"..   ++++++@++@@  ..",
"..   +@++++++++@  ..",
".. ############## ..",
"..                ..",
"....................",
"...................."};
