/* XPM */
static const char *brush_object_dead_tree[] = {
/* columns rows colors chars-per-pixel */
"16 16 2 1",
"  c #800000",
". c None",
/* pixels */
"................",
".. .. ..........",
"... . ... . ....",
".... .....  ....",
"..    .. .. . ..",
".....   ...  ...",
"... ..  ..   ...",
"... ..    ... ..",
"..   ..   ......",
".....     ..  ..",
"......      ....",
"......    ......",
"......    ......",
"......    ......",
".....      .....",
"....         ..."
};
