/* XPM */
static const char *brush_object_stone[] = {
/* columns rows colors chars-per-pixel */
"16 16 4 1",
"  c #008000",
". c #808080",
"X c #C0C0C0",
"o c None",
/* pixels */
"oooooooooooooooo",
"oooooooooooooooo",
"oooooooooooooooo",
"oooooooooooooooo",
"oooooooooooooooo",
"oooooooooooooooo",
"oooooooooooooooo",
"oooo.Xoooooooooo",
"ooo...X..ooooooo",
"oooX....X.Xooooo",
"oo.........Xoooo",
"oo...X.....XXooo",
"ooo......X..XXoo",
"ooo.X........Xoo",
"o              o",
"oooooooooooooooo"
};
