/* XPM */
static const char *brush_height_0[] = {
/* columns rows colors chars-per-pixel */
"16 16 3 1",
"  c #000000",
". c #0000FF",
"X c None",
/* pixels */
"XXXXXXXXXXXXXXXX",
"XXXXXXXXXXX    X",
"XXXXXXXXXXX XX X",
"XXXXXXXXXXX XX X",
"XXXXXXXXXXX XX X",
"XXXXXXXXXXX    X",
"XXXXXXXXXXXXXXXX",
"XXXXXXXXXXXXXXXX",
"XXXXXXXXXXXXXXXX",
"                ",
"................",
"................",
"................",
"................",
"................",
"................"
};
