/* XPM */
static const char *brush_object_c2_hanged[] = {
/* columns rows colors chars-per-pixel */
"16 16 7 1",
"  c #800000",
". c #008000",
"X c #FFFF00",
"o c #0000FF",
"O c #808080",
"+ c #C0C0C0",
"@ c None",
/* pixels */
"@@@@@@@ @@@@@@@@",
"@@@         @@@@",
"@@@+@ @ @ @+@@@@",
"@@OO@@   @@+@@@@",
"@@+++@@ @@OOO@@@",
"@+O+O+@ @O@+@O@@",
"@++O++@ @O +@O@@",
"@X+++X@ @O + O@@",
"@@oXo@@ @O + O@@",
"@@oXo@@ @O@+ O@@",
"@@+++@@ @OOO O @",
"@@+@+@@ @@@@ @ @",
"@@@@@@@ @@@@@@@@",
"@@@@@@@ @@@@@@@@",
"@@@@@@. O@@@@@@@",
"................"
};
