/* XPM */
static const char *brush_object_c4_bigrock[] = {
/* columns rows colors chars-per-pixel */
"16 16 4 1",
"  c #008000",
". c #808080",
"X c #C0C0C0",
"o c None",
/* pixels */
"oooooooooooooooo",
"oooooooooooooooo",
"oooooooooooooooo",
"ooooo.Xooooooooo",
"ooooX...ooo.Xooo",
"oooo...X   ..ooo",
"oooo.X.X   ..ooo",
"oooX....X   .ooo",
"ooo..X.X.   .Xoo",
"ooo..  ...  ..oo",
"ooo.X  ....X..oo",
"ooX..  .X..X.Xoo",
"oo.... ..   ..oo",
"oo.X......    oo",
"oo.....   ....oo",
"                "
};
