/* XPM */
static const char *brush_height_p5[] = {
/* columns rows colors chars-per-pixel */
"16 16 3 1",
"  c #000000",
". c #0000FF",
"X c None",
/* pixels */
"XXXXXXXXXXXXXXXX",
"XXXXXXXXXXX    X",
"XXXXXXXXXXX XXXX",
"XXXXXXXXXXX    X",
"XXX       XXXX X",
"XXX.......X    X",
"XXX.......XXXXXX",
"XXX.......XXXXXX",
"XXX.......XXXXXX",
"   .......      ",
"................",
"................",
"................",
"................",
"................",
"................"
};
