/* XPM */
static const char *brush_object_c1_bigtree[] = {
/* columns rows colors chars-per-pixel */
"16 16 4 1",
"  c #800000",
". c #008000",
"X c #808000",
"o c None",
/* pixels */
"ooooooXX.Xoooooo",
"oooo.XXXXX.Xoooo",
"oooXXX.X.XXX.ooo",
"oooX.XX.XX.XXooo",
"ooXXXXXXXXXX.Xoo",
"ooX..X.XX...X.oo",
"oooXXXX.XXXXXooo",
"oooXX.XXX..X.ooo",
"ooooXXXX.XXXoooo",
"oooooo.XXXoooooo",
"oooooo    oooooo",
"oooooo    oooooo",
"oooooo    oooooo",
"oooooo    oooooo",
"ooooo      ooooo",
"oooo         ooo"
};
