/* XPM */
static const char *brush_gradient_p4[] = {
/* columns rows colors chars-per-pixel */
"16 16 3 1",
"  c #000000",
". c #FF0000",
"X c None",
/* pixels */
"XXXXXXXXXXXXXXXX",
"XXXXXXXXXXX XX X",
"XXXXXXXXXXX XX X",
"XXXXXXXXXXX    X",
"XXXXXXXXXXXXXX X",
"XXXX     XXXXX X",
"XXX ..... XXXXXX",
"XX ....... XXXXX",
"X ......... XXXX",
" ...........    ",
"................",
"................",
"................",
"................",
"................",
"................"
};
