/* XPM */
static const char *edit_switch_surfaces[] = {
/* columns rows colors chars-per-pixel */
"16 16 2 1",
"  c #008000",
". c #00FF00",
/* pixels */
"........        ",
"........        ",
"........        ",
"........        ",
"..... ..  .     ",
"....  ..  ..    ",
"...   ..  ...   ",
"..      ......  ",
"..      ......  ",
"...   ..  ...   ",
"....  ..  ..    ",
"..... ..  .     ",
"........        ",
"........        ",
"........        ",
"........        "
};
