/* XPM */
static const char *radius_8[] = {
/* columns rows colors chars-per-pixel */
"16 16 4 1",
"  c #000000",
". c #808080",
"X c #C0C0C0",
"o c None",
/* pixels */
"oooooooooooooooo",
"oooooooooooooooo",
"oooooo.  .oooooo",
"ooooX      Xoooo",
"oooX        Xooo",
"ooo          ooo",
"oo.          .oo",
"oo            oo",
"oo            oo",
"oo.          .oo",
"ooo          ooo",
"oooX        Xooo",
"ooooX      Xoooo",
"oooooo.  .oooooo",
"oooooooooooooooo",
"oooooooooooooooo"
};
