/* XPM */
static const char *radius_5[] = {
/* columns rows colors chars-per-pixel */
"16 16 4 1",
"  c #000000",
". c #808080",
"X c #C0C0C0",
"o c None",
/* pixels */
"oooooooooooooooo",
"oooooooooooooooo",
"oooooooooooooooo",
"oooooooXXooooooo",
"oooooX.  .Xooooo",
"ooooX      Xoooo",
"oooo.      .oooo",
"oooX        Xooo",
"oooX        Xooo",
"oooo.      .oooo",
"ooooX      Xoooo",
"oooooX.  .Xooooo",
"oooooooXXooooooo",
"oooooooooooooooo",
"oooooooooooooooo",
"oooooooooooooooo"
};
