/* XPM */
static const char *radius_7[] = {
/* columns rows colors chars-per-pixel */
"16 16 4 1",
"  c #000000",
". c #808080",
"X c #C0C0C0",
"o c None",
/* pixels */
"oooooooooooooooo",
"oooooooooooooooo",
"oooooooXXooooooo",
"ooooo.    .ooooo",
"oooo        oooo",
"ooo.        .ooo",
"ooo          ooo",
"ooX          Xoo",
"ooX          Xoo",
"ooo          ooo",
"ooo.        .ooo",
"oooo        oooo",
"ooooo.    .ooooo",
"oooooooXXooooooo",
"oooooooooooooooo",
"oooooooooooooooo"
};
